<svg width="410" height="230" viewBox="0 0 410 230" xmlns="http://www.w3.org/2000/svg" lang="en" xml:lang="en"><rect x="2" y="2" stroke-width="4" rx="6" width="406" height="226" stroke="#30363D" fill="#0D1117"/><g font-weight="600" font-size="110pt" font-family="Verdana,Geneva,DejaVu Sans,sans-serif" text-rendering="geometricPrecision"><g transform="translate(0, 21)" fill="#8B949E"><g transform="translate(15, 0)"><g transform="scale(0.095)"><text x="0" y="132" textLength="3652" lengthAdjust="spacingAndGlyphs">Language Distribution in Public Repositories</text></g></g><g transform="translate(220, 21)"><circle cx="81" cy="81" r="81" fill="#ffffff"/></g><g transform="translate(221, 22)"><path fill-rule="evenodd" fill="#b07219" d="M 0.0,80.00000000000001 A 80 80 0 0 1 152.45664497627405 46.08783995699799 L 80,80 Z"/><path fill-rule="evenodd" fill="#f1e05a" d="M 152.45664497627405,46.08783995699799 A 80 80 0 0 1 139.001785471275 134.0258207823041 L 80,80 Z"/><path fill-rule="evenodd" fill="#663399" d="M 139.001785471275,134.0258207823041 A 80 80 0 0 1 60.917747930549794 157.6908466677894 L 80,80 Z"/><path fill-rule="evenodd" fill="#3178c6" d="M 60.917747930549794,157.6908466677894 A 80 80 0 0 1 12.018028590548724 122.17169149185919 L 80,80 Z"/><path fill-rule="evenodd" fill="#3572A5" d="M 12.018028590548724,122.17169149185919 A 80 80 0 0 1 2.1429324787112876 98.39230918034737 L 80,80 Z"/><path fill-rule="evenodd" fill="#e34c26" d="M 2.1429324787112876,98.39230918034737 A 80 80 0 0 1 0.0014457009412467414 80.48094704547114 L 80,80 Z"/><path fill-rule="evenodd" fill="#384d54" d="M 0.0014457009412467414,80.48094704547114 A 80 80 0 0 1 0.0 80.00000000000003 L 80,80 Z"/></g><g transform="translate(15, 21)"><rect x="0.5" y="0.5" rx="2" width="15" height="15" fill="#b07219" stroke-width="1" stroke="#ffffff"/><text transform="scale(0.095)" x="263" y="132" textLength="1038" lengthAdjust="spacingAndGlyphs">Java 43.03%</text></g><g transform="translate(15, 42)"><rect x="0.5" y="0.5" rx="2" width="15" height="15" fill="#f1e05a" stroke-width="1" stroke="#ffffff"/><text transform="scale(0.095)" x="263" y="132" textLength="1516" lengthAdjust="spacingAndGlyphs">JavaScript 18.77%</text></g><g transform="translate(15, 63)"><rect x="0.5" y="0.5" rx="2" width="15" height="15" fill="#663399" stroke-width="1" stroke="#ffffff"/><text transform="scale(0.095)" x="263" y="132" textLength="1008" lengthAdjust="spacingAndGlyphs">CSS 17.03%</text></g><g transform="translate(15, 84)"><rect x="0.5" y="0.5" rx="2" width="15" height="15" fill="#3178c6" stroke-width="1" stroke="#ffffff"/><text transform="scale(0.095)" x="263" y="132" textLength="1568" lengthAdjust="spacingAndGlyphs">TypeScript 12.33%</text></g><g transform="translate(15, 105)"><rect x="0.5" y="0.5" rx="2" width="15" height="15" fill="#3572A5" stroke-width="1" stroke="#ffffff"/><text transform="scale(0.095)" x="263" y="132" textLength="1149" lengthAdjust="spacingAndGlyphs">Python 5.14%</text></g><g transform="translate(15, 126)"><rect x="0.5" y="0.5" rx="2" width="15" height="15" fill="#e34c26" stroke-width="1" stroke="#ffffff"/><text transform="scale(0.095)" x="263" y="132" textLength="1036" lengthAdjust="spacingAndGlyphs">HTML 3.60%</text></g><g transform="translate(15, 147)"><rect x="0.5" y="0.5" rx="2" width="15" height="15" fill="#384d54" stroke-width="1" stroke="#ffffff"/><text transform="scale(0.095)" x="263" y="132" textLength="1414" lengthAdjust="spacingAndGlyphs">Dockerfile 0.10%</text></g></g></g></svg>